<svg width="23" height="24" viewBox="0 0 23 24" fill="none" xmlns="http://www.w3.org/2000/svg">
<g clip-path="url(#clip0_2855_8487)">
<path d="M19.1667 2.41667H18.2083V1.45833C18.2083 1.20417 18.1074 0.960412 17.9276 0.780689C17.7479 0.600967 17.5042 0.5 17.25 0.5C16.9958 0.5 16.7521 0.600967 16.5724 0.780689C16.3926 0.960412 16.2917 1.20417 16.2917 1.45833V2.41667H6.70833V1.45833C6.70833 1.20417 6.60737 0.960412 6.42764 0.780689C6.24792 0.600967 6.00417 0.5 5.75 0.5C5.49583 0.5 5.25208 0.600967 5.07236 0.780689C4.89263 0.960412 4.79167 1.20417 4.79167 1.45833V2.41667H3.83333C2.81667 2.41667 1.84165 2.82053 1.12276 3.53942C0.403868 4.25831 0 5.23334 0 6.25L0 19.6667C0 20.6833 0.403868 21.6584 1.12276 22.3772C1.84165 23.0961 2.81667 23.5 3.83333 23.5H19.1667C20.1833 23.5 21.1584 23.0961 21.8772 22.3772C22.5961 21.6584 23 20.6833 23 19.6667V6.25C23 5.23334 22.5961 4.25831 21.8772 3.53942C21.1584 2.82053 20.1833 2.41667 19.1667 2.41667ZM21.0833 19.6667C21.0833 20.175 20.8814 20.6625 20.522 21.022C20.1625 21.3814 19.675 21.5833 19.1667 21.5833H3.83333C3.325 21.5833 2.83749 21.3814 2.47805 21.022C2.1186 20.6625 1.91667 20.175 1.91667 19.6667V6.25C1.91667 5.74167 2.1186 5.25416 2.47805 4.89471C2.83749 4.53527 3.325 4.33333 3.83333 4.33333H4.79167V5.29167C4.79167 5.54583 4.89263 5.78959 5.07236 5.96931C5.25208 6.14903 5.49583 6.25 5.75 6.25C6.00417 6.25 6.24792 6.14903 6.42764 5.96931C6.60737 5.78959 6.70833 5.54583 6.70833 5.29167V4.33333H16.2917V5.29167C16.2917 5.54583 16.3926 5.78959 16.5724 5.96931C16.7521 6.14903 16.9958 6.25 17.25 6.25C17.5042 6.25 17.7479 6.14903 17.9276 5.96931C18.1074 5.78959 18.2083 5.54583 18.2083 5.29167V4.33333H19.1667C19.675 4.33333 20.1625 4.53527 20.522 4.89471C20.8814 5.25416 21.0833 5.74167 21.0833 6.25V19.6667Z" fill="#AAAAAA"/>
<path d="M18.207 7.2085H4.79036C4.5362 7.2085 4.29244 7.30946 4.11272 7.48919C3.933 7.66891 3.83203 7.91266 3.83203 8.16683C3.83203 8.421 3.933 8.66475 4.11272 8.84447C4.29244 9.0242 4.5362 9.12516 4.79036 9.12516H18.207C18.4612 9.12516 18.705 9.0242 18.8847 8.84447C19.0644 8.66475 19.1654 8.421 19.1654 8.16683C19.1654 7.91266 19.0644 7.66891 18.8847 7.48919C18.705 7.30946 18.4612 7.2085 18.207 7.2085Z" fill="#AAAAAA"/>
</g>
<defs>
<clipPath id="clip0_2855_8487">
<rect width="23" height="23" fill="white" transform="translate(0 0.5)"/>
</clipPath>
</defs>
</svg>
