<svg width="14" height="14" viewBox="0 0 14 14" fill="none" xmlns="http://www.w3.org/2000/svg">
<path d="M4.35592 9.4378C4.90792 10.0198 6.92992 12.1198 8.62192 13.0798C10.3139 14.0398 11.6999 13.7458 12.7799 12.8458C14.2019 11.6638 14.1059 10.8958 12.8219 9.7618C11.8199 8.8798 10.7819 7.8418 10.0919 8.9878C9.54592 9.8998 9.52192 10.5418 8.46592 10.1038C7.40992 9.6658 6.41392 8.5918 6.04192 8.2138C5.66992 7.8358 4.72192 6.8458 4.33792 5.7658C3.95392 4.6858 4.60192 4.6978 5.53792 4.1998C6.71992 3.5698 5.74192 2.4838 4.91392 1.4338C3.85192 0.0958021 3.08392 -0.0481977 1.83592 1.3138C0.881922 2.3458 0.515922 3.7138 1.38592 5.4538C2.25592 7.1938 3.80992 8.8498 4.36192 9.4378H4.35592Z" fill="#474747"/>
</svg>
