<svg width="54" height="72" viewBox="0 0 54 72" fill="none" xmlns="http://www.w3.org/2000/svg">
<g filter="url(#filter0_d_2863_704)">
<mask id="mask0_2863_704" style="mask-type:luminance" maskUnits="userSpaceOnUse" x="3" y="2" width="46" height="64">
<path d="M48.1201 2.40039H3.88086V65.7272H48.1201V2.40039Z" fill="white"/>
</mask>
<g mask="url(#mask0_2863_704)">
<path d="M48.0917 25.0831C47.4029 39.2328 34.0006 54.0899 27.3711 65.0342C26.8259 65.9294 25.3048 65.9582 24.8026 65.0342C16.2934 49.0942 -7.72756 26.4403 10.611 8.66666C14.7436 4.65278 20.3399 2.40039 26.094 2.40039C32.4221 2.40039 38.535 5.15813 42.6963 9.95168C46.872 14.7452 48.35 19.8709 48.0917 25.0831Z" fill="#00B4FF"/>
<path d="M37.4447 24.7074C37.4447 31.0747 32.3219 36.2292 25.9938 36.2292C19.6657 36.2292 14.543 31.0747 14.543 24.7074C14.543 18.3401 19.6657 13.1855 25.9938 13.1855C32.3219 13.1855 37.4447 18.3401 37.4447 24.7074Z" fill="white"/>
</g>
</g>
<defs>
<filter id="filter0_d_2863_704" x="0.880859" y="0.400391" width="52.2393" height="71.3159" filterUnits="userSpaceOnUse" color-interpolation-filters="sRGB">
<feFlood flood-opacity="0" result="BackgroundImageFix"/>
<feColorMatrix in="SourceAlpha" type="matrix" values="0 0 0 0 0 0 0 0 0 0 0 0 0 0 0 0 0 0 127 0" result="hardAlpha"/>
<feOffset dx="1" dy="2"/>
<feGaussianBlur stdDeviation="2"/>
<feComposite in2="hardAlpha" operator="out"/>
<feColorMatrix type="matrix" values="0 0 0 0 0 0 0 0 0 0 0 0 0 0 0 0 0 0 0.25 0"/>
<feBlend mode="normal" in2="BackgroundImageFix" result="effect1_dropShadow_2863_704"/>
<feBlend mode="normal" in="SourceGraphic" in2="effect1_dropShadow_2863_704" result="shape"/>
</filter>
</defs>
</svg>
